<mxfile host="app.diagrams.net" agent="Mozilla/5.0 (Windows NT 10.0; Win64; x64) AppleWebKit/537.36 (KHTML, like Gecko) Chrome/130.0.0.0 Safari/537.36" version="24.8.6">
  <diagram name="Page-1" id="BrZnDR2DRqoMnuZorf0s">
    <mxGraphModel dx="1235" dy="655" grid="0" gridSize="10" guides="1" tooltips="1" connect="1" arrows="1" fold="1" page="1" pageScale="1" pageWidth="827" pageHeight="1169" background="#ffffff" math="0" shadow="1">
      <root>
        <mxCell id="0" />
        <mxCell id="1" parent="0" />
        <mxCell id="rey6emoaC9-G3GYgysTe-8" style="edgeStyle=orthogonalEdgeStyle;rounded=0;orthogonalLoop=1;jettySize=auto;html=1;entryX=0.5;entryY=0;entryDx=0;entryDy=0;" edge="1" parent="1" source="rey6emoaC9-G3GYgysTe-1" target="rey6emoaC9-G3GYgysTe-3">
          <mxGeometry relative="1" as="geometry">
            <mxPoint x="380" y="250" as="targetPoint" />
          </mxGeometry>
        </mxCell>
        <mxCell id="rey6emoaC9-G3GYgysTe-9" style="edgeStyle=orthogonalEdgeStyle;rounded=0;orthogonalLoop=1;jettySize=auto;html=1;entryX=0.5;entryY=0;entryDx=0;entryDy=0;" edge="1" parent="1" source="rey6emoaC9-G3GYgysTe-1" target="rey6emoaC9-G3GYgysTe-2">
          <mxGeometry relative="1" as="geometry" />
        </mxCell>
        <mxCell id="rey6emoaC9-G3GYgysTe-1" value="&lt;h1&gt;Home Page&lt;/h1&gt;" style="rounded=1;whiteSpace=wrap;html=1;" vertex="1" parent="1">
          <mxGeometry x="254" y="60" width="320" height="170" as="geometry" />
        </mxCell>
        <mxCell id="rey6emoaC9-G3GYgysTe-6" style="edgeStyle=orthogonalEdgeStyle;rounded=0;orthogonalLoop=1;jettySize=auto;html=1;entryX=0;entryY=0.5;entryDx=0;entryDy=0;" edge="1" parent="1" source="rey6emoaC9-G3GYgysTe-2" target="rey6emoaC9-G3GYgysTe-3">
          <mxGeometry relative="1" as="geometry" />
        </mxCell>
        <mxCell id="rey6emoaC9-G3GYgysTe-2" value="&lt;h2&gt;Add Flight&lt;/h2&gt;" style="ellipse;whiteSpace=wrap;html=1;" vertex="1" parent="1">
          <mxGeometry x="134" y="380" width="116" height="80" as="geometry" />
        </mxCell>
        <mxCell id="rey6emoaC9-G3GYgysTe-7" style="edgeStyle=orthogonalEdgeStyle;rounded=0;orthogonalLoop=1;jettySize=auto;html=1;entryX=0;entryY=0.5;entryDx=0;entryDy=0;" edge="1" parent="1" source="rey6emoaC9-G3GYgysTe-3" target="rey6emoaC9-G3GYgysTe-4">
          <mxGeometry relative="1" as="geometry" />
        </mxCell>
        <mxCell id="rey6emoaC9-G3GYgysTe-3" value="&lt;h2&gt;Flight List&lt;/h2&gt;" style="ellipse;whiteSpace=wrap;html=1;" vertex="1" parent="1">
          <mxGeometry x="354" y="380" width="120" height="80" as="geometry" />
        </mxCell>
        <mxCell id="rey6emoaC9-G3GYgysTe-14" style="edgeStyle=orthogonalEdgeStyle;rounded=0;orthogonalLoop=1;jettySize=auto;html=1;entryX=0.5;entryY=1;entryDx=0;entryDy=0;" edge="1" parent="1" source="rey6emoaC9-G3GYgysTe-4" target="rey6emoaC9-G3GYgysTe-3">
          <mxGeometry relative="1" as="geometry">
            <Array as="points">
              <mxPoint x="634" y="480" />
              <mxPoint x="414" y="480" />
            </Array>
          </mxGeometry>
        </mxCell>
        <mxCell id="rey6emoaC9-G3GYgysTe-4" value="&lt;h2&gt;Edit Flight&lt;/h2&gt;" style="ellipse;whiteSpace=wrap;html=1;" vertex="1" parent="1">
          <mxGeometry x="574" y="380" width="120" height="80" as="geometry" />
        </mxCell>
        <mxCell id="rey6emoaC9-G3GYgysTe-15" value="Edit Details" style="text;strokeColor=none;align=center;fillColor=none;html=1;verticalAlign=middle;whiteSpace=wrap;rounded=0;" vertex="1" parent="1">
          <mxGeometry x="484" y="384" width="79" height="30" as="geometry" />
        </mxCell>
        <mxCell id="rey6emoaC9-G3GYgysTe-16" value="Updated List" style="text;strokeColor=none;align=center;fillColor=none;html=1;verticalAlign=middle;whiteSpace=wrap;rounded=0;" vertex="1" parent="1">
          <mxGeometry x="484" y="487" width="86" height="30" as="geometry" />
        </mxCell>
      </root>
    </mxGraphModel>
  </diagram>
</mxfile>
